<?xml version="1.0" encoding="UTF-8" standalone="no"?>
<!-- Created with Inkscape (http://www.inkscape.org/) -->

<svg
   xmlns:dc="http://purl.org/dc/elements/1.1/"
   xmlns:cc="http://creativecommons.org/ns#"
   xmlns:rdf="http://www.w3.org/1999/02/22-rdf-syntax-ns#"
   xmlns:svg="http://www.w3.org/2000/svg"
   xmlns="http://www.w3.org/2000/svg"
   xmlns:sodipodi="http://sodipodi.sourceforge.net/DTD/sodipodi-0.dtd"
   xmlns:inkscape="http://www.inkscape.org/namespaces/inkscape"
   width="297mm"
   height="210mm"
   id="svg2985"
   version="1.1"
   inkscape:version="0.48.0 r9654"
   sodipodi:docname="Documento nuevo 2">
  <defs
     id="defs2987" />
  <sodipodi:namedview
     inkscape:document-units="mm"
     pagecolor="#ffffff"
     bordercolor="#666666"
     borderopacity="1.0"
     inkscape:pageopacity="0.0"
     inkscape:pageshadow="2"
     inkscape:zoom="0.70710678"
     inkscape:cx="561.59218"
     inkscape:cy="377.88843"
     inkscape:current-layer="layer1"
     id="namedview2989"
     showgrid="false"
     inkscape:window-width="1440"
     inkscape:window-height="838"
     inkscape:window-x="-8"
     inkscape:window-y="-8"
     inkscape:window-maximized="1" />
  <metadata
     id="metadata2991">
    <rdf:RDF>
      <cc:Work
         rdf:about="">
        <dc:format>image/svg+xml</dc:format>
        <dc:type
           rdf:resource="http://purl.org/dc/dcmitype/StillImage" />
        <dc:title></dc:title>
      </cc:Work>
    </rdf:RDF>
  </metadata>
  <g
     inkscape:label="Layer 1"
     inkscape:groupmode="layer"
     id="layer1">
    <path
       style="fill:none;stroke:#646464;stroke-width:5.31496048;stroke-linecap:butt;stroke-linejoin:miter;stroke-miterlimit:4;stroke-opacity:1;stroke-dasharray:none"
       d="m 174.26919,182.1985 c 0,0 6.01059,-1.63676 9.36493,-1.83227 3.35434,-0.19551 7.58727,-0.10671 10.58645,0.81434 2.99918,0.92105 4.00744,1.37334 7.12549,4.07171 3.11805,2.69837 6.95654,8.14281 10.17928,13.02947 3.22274,4.88666 6.93191,11.36643 8.95776,16.28684 2.02585,4.92041 1.89368,3.91229 3.66454,12.82589 1.77086,8.9136 3.17056,31.7844 4.68246,40.92068 1.5119,9.13628 1.30743,8.96883 3.05379,14.0474 1.74636,5.07857 7.73625,16.08326 7.73625,16.08326 l 61.88999,89.7812 30.13065,41.32786 c 0,0 5.77528,6.37067 10.58645,9.77211 4.81117,3.40144 12.67978,6.9349 18.52628,9.7721 5.8465,2.8372 10.46683,5.32121 16.49043,7.32908 6.0236,2.00787 13.80897,3.19323 19.5442,4.47888 5.73523,1.28565 14.86174,3.25737 14.86174,3.25737 0,0 15.52534,4.29327 22.19083,8.14342 6.66549,3.85015 12.62403,10.05753 17.30476,14.45457 4.68073,4.39704 10.99362,11.60437 10.99362,11.60437 0,0 2.21211,4.84659 2.64661,7.32908 0.4345,2.48249 0.33189,4.82901 0,7.32908 -0.33189,2.50007 -2.03585,7.53266 -2.03585,7.53266 l -8.95777,11.60437 0,0"
       id="path3786"
       inkscape:connector-curvature="0"
       sodipodi:nodetypes="czzzzzzzzccczzzzczzczzccc" />
    <path
       style="fill:none;stroke:#646464;stroke-width:5.31496048;stroke-linecap:butt;stroke-linejoin:miter;stroke-miterlimit:4;stroke-opacity:1;stroke-dasharray:none"
       d="m 408.18893,463.35008 34.20237,6.71832 c 0,0 4.63957,2.22772 6.10756,3.46095 1.46799,1.23323 2.11842,2.11661 2.8502,3.46095 0.73178,1.34434 1.32497,3.07992 1.4251,4.47888 0.10013,1.39896 -0.0174,1.91367 -0.61076,3.66454 -0.59335,1.75087 -3.46095,6.51474 -3.46095,6.51474 0,0 -10.15481,10.39523 -12.41872,14.0474 -2.26391,3.65217 -2.0946,4.21619 -2.64661,6.51474 -0.55201,2.29855 -0.6688,4.32646 -0.61076,7.12549 0.058,2.79903 0.96816,7.05492 1.22152,9.56852 0.25336,2.5136 0.47609,3.34603 0.40717,5.49681 -0.0689,2.15078 -0.41378,5.31962 -1.01793,7.32907 -0.60415,2.00945 -2.23944,4.68247 -2.23944,4.68247"
       id="path3790"
       inkscape:connector-curvature="0"
       sodipodi:nodetypes="cczzzzczzzzzzc" />
    <path
       style="fill:none;stroke:#646464;stroke-width:7.08661413;stroke-linecap:butt;stroke-linejoin:miter;stroke-miterlimit:4;stroke-opacity:1;stroke-dasharray:none"
       d="m 645.16246,262.00401 76.95532,5.08964 c 0,0 6.03239,1.23718 8.55059,2.8502 2.5182,1.61302 4.67533,3.67693 6.10757,6.51474 1.43224,2.83781 1.83226,9.97568 1.83226,9.97568 0,0 0.32489,11.93989 -0.81434,15.4725 -1.13923,3.53261 -2.11373,4.04335 -3.66454,5.7004 -1.55081,1.65705 -3.28096,2.908 -5.49681,4.07171 -2.21585,1.16371 -4.94399,1.98523 -7.73625,2.64661 -2.79226,0.66138 -8.95776,1.22151 -8.95776,1.22151"
       id="path3792"
       inkscape:connector-curvature="0"
       sodipodi:nodetypes="cczzczzzzc" />
    <path
       style="fill:none;stroke:#656565;stroke-width:6.31417322;stroke-linecap:butt;stroke-linejoin:miter;stroke-miterlimit:4;stroke-opacity:1;stroke-dasharray:none"
       d="m 733.31498,250.60322 c 0,0 5.51161,0.0145 7.32908,1.01793 1.81747,1.00343 2.16954,0.43487 3.25737,3.86813 1.08783,3.43326 -1.4251,16.49042 -1.4251,16.49042 l -4.47889,28.70556"
       id="path3794"
       inkscape:connector-curvature="0"
       sodipodi:nodetypes="czzcc" />
    <path
       style="fill:none;stroke:#000000;stroke-width:3.47952747;stroke-linecap:butt;stroke-linejoin:miter;stroke-miterlimit:4;stroke-opacity:1;stroke-dasharray:none"
       d="m 294.57623,619.59047 -36.42981,19.25031 c 0,0 -5.19254,2.71333 -8.55059,3.46095 -3.35805,0.74762 -8.01298,0.90791 -11.40079,0.61076 -3.38781,-0.29715 -5.90369,-0.91329 -8.75418,-2.03586 -2.85049,-1.12257 -5.87681,-3.01454 -8.14342,-4.68246 -2.26661,-1.66792 -4.06965,-3.21461 -5.49681,-5.08964 -1.42716,-1.87503 -3.05378,-5.90398 -3.05378,-5.90398 l -22.80158,-46.01032 c 0,0 -4.27757,-6.81867 -7.93983,-12.62231 -3.66226,-5.80364 -10.01247,-15.77605 -14.0474,-22.19082 -4.03493,-6.41477 -10.17928,-16.28684 -10.17928,-16.28684 L 120.31903,448.8955 83.877227,369.49716 c 0,0 -3.185032,-9.53108 -4.478881,-15.26891 -1.293849,-5.73783 -2.955445,-14.71296 -3.053783,-19.13704 -0.09834,-4.42408 -0.646629,-0.67468 0.814342,-7.12549 1.460971,-6.45081 10.586447,-30.74142 10.586447,-30.74142 l 8.550591,-15.67608 24.633847,-37.45973"
       id="path3796"
       inkscape:connector-curvature="0"
       sodipodi:nodetypes="cczzzzzcczzccczzzccc" />
    <path
       style="fill:none;stroke:#000000;stroke-width:7.08661413;stroke-linecap:butt;stroke-linejoin:miter;stroke-miterlimit:4;stroke-opacity:1;stroke-dasharray:none"
       d="M 133.75567,497.34886 97.517456,419.57919 61.482822,351.9888 c 0,0 -0.523721,-2.72449 -0.407171,-4.27529 0.11655,-1.5508 1.221513,-4.88605 1.221513,-4.88605 l 5.293223,-10.79003 22.19082,-48.24977 c 0,0 5.541536,-8.56169 9.772104,-15.4725 4.230569,-6.91081 15.879669,-20.56213 15.879669,-20.56213 l 24.64832,-30.39811 56.63169,-59.27831 73.24139,-77.874451 10.24913,-9.757635 c 0,0 3.64678,-2.697426 5.58114,-3.018853 1.93436,-0.321427 4.61697,-0.379391 7.05563,0.610756 2.43866,0.990147 4.96911,3.293484 7.73625,6.395479 2.76714,3.101995 5.89056,7.444039 7.65192,11.38632 1.76136,3.942281 2.3982,7.430078 3.05378,10.670774 0.65558,3.240696 0.66177,3.496294 1.01793,8.95776 0.35616,5.46147 -0.52848,18.14433 0.40717,23.81951 0.93565,5.67518 1.73598,7.06512 3.25737,10.17927 1.52139,3.11415 1.80164,4.21378 5.70039,8.34701 3.89875,4.13323 8.34864,7.29693 18.98285,14.65815 10.63421,7.36122 45.96093,27.48405 45.96093,27.48405 0,0 28.50948,16.35209 43.16013,23.20874 14.65065,6.85665 27.39797,11.84905 44.58522,17.91553 17.18725,6.06648 42.8437,14.02719 58.63263,17.91552 15.78893,3.88833 24.21971,4.90025 35.62746,6.71832 11.40775,1.81807 19.7098,3.13348 32.77726,4.2753 13.06746,1.14182 32.01854,2.00283 45.60316,2.03585 13.58462,0.033 23.52116,-0.15952 35.83104,-1.4251 12.30988,-1.26558 26.19009,-3.79201 37.86691,-6.31115 11.67682,-2.51914 32.16651,-8.55059 32.16651,-8.55059 l 143.93495,-52.93223 71.66209,-28.0948 19.34063,-6.9219 c 0,0 4.12196,-0.36237 5.70039,0.20358 1.57843,0.56595 2.42679,1.41737 3.46095,2.64661 1.03416,1.22924 2.10956,3.15882 2.44303,4.68247 0.33347,1.52365 0.23969,2.72951 -0.20358,4.07171 -0.44327,1.3422 -2.44303,3.66454 -2.44303,3.66454 l -65.35095,42.95654 -137.01304,90.39196 c 0,0 -12.07725,8.0734 -16.49043,10.38286 -4.41318,2.30946 -6.53477,3.29775 -9.56851,4.07171 -3.03374,0.77396 -4.49784,0.78719 -8.34701,0.81435 -3.84917,0.0272 -14.65816,-1.22152 -14.65816,-1.22152 L 598.33779,299.05657 c 0,0 -5.56008,-0.75562 -7.32908,-0.20358 -1.769,0.55204 -2.15821,1.07477 -3.05378,2.23944 -0.89557,1.16467 -1.83227,4.68247 -1.83227,4.68247 0,0 -1.76492,6.33218 -2.23944,10.58644 -0.47452,4.25426 -0.45901,10.16935 -0.20358,14.86174 0.25543,4.69239 1.62868,13.23306 1.62868,13.23306 0,0 1.85438,11.45759 3.46095,16.08326 1.60657,4.62567 3.12981,7.22052 5.7004,11.60437 2.57059,4.38385 9.97569,14.45457 9.97569,14.45457 0,0 2.69527,3.78367 3.66454,6.31115 0.96927,2.52748 1.65484,5.97581 1.83226,8.75418 0.17742,2.77837 0.14457,4.18274 -0.61075,7.73625 -0.75532,3.55351 -2.50772,9.18807 -4.68247,13.23305 -2.17475,4.04498 -5.28704,8.44543 -8.71925,12.51752 -3.43221,4.07209 -7.41694,8.73524 -12.04647,12.86081 -4.62953,4.12557 -17.94446,13.2126 -17.94446,13.2126 l -94.63832,61.34909 -64.17883,40.63278 c 0,0 -9.40117,3.293 -14.81235,4.38008 -5.41118,1.08708 -11.2619,0.93527 -16.28684,0.40717 -5.02494,-0.5281 -9.18725,-1.55757 -13.64023,-3.25737 -4.45298,-1.6998 -9.38357,-4.4636 -12.82588,-6.9219 -3.44231,-2.4583 -7.93984,-7.32908 -7.93984,-7.32908 L 248.37431,439.32699 c 0,0 -6.96867,-6.15373 -10.58644,-7.73625 -3.61777,-1.58252 -7.08161,-2.12065 -10.38286,-2.03586 -3.30125,0.0848 -6.20784,1.02295 -8.95777,2.23944 -2.74993,1.21649 -5.28156,2.97861 -7.32907,4.88605 -2.04751,1.90744 -3.44447,3.59019 -4.88606,6.31115 -1.44159,2.72096 -2.71634,6.8132 -3.25736,9.97569 -0.54102,3.16249 -0.20359,8.75418 -0.20359,8.75418 l 14.0474,49.06411 c 0,0 3.61038,8.28038 6.73879,11.60437 3.1284,3.32399 5.43579,4.80502 11.78749,8.34701 6.3517,3.54199 20.15797,7.45131 26.87329,11.40078 6.71532,3.94947 6.22161,3.27066 13.26798,11.07795 7.04637,7.80729 24.17746,32.93311 25.61685,37.98616 1.43939,5.05305 1.94926,8.13703 1.66361,12.38379 -0.28564,4.24675 -0.90818,7.73983 -4.27529,12.82588 -3.3671,5.08605 -16.72894,14.69309 -16.72894,14.69309 0,0 -31.96775,20.48547 -35.42388,21.78365 -3.45613,1.29818 -9.40322,1.63732 -13.23306,1.62868 -3.82984,-0.009 -6.13649,-0.14878 -9.56852,-1.22151 -3.43203,-1.07273 -7.09179,-2.96483 -10.58644,-5.49681 -3.49465,-2.53198 -9.82332,-9.08684 -14.87022,-16.96993 -5.04689,-7.8831 -56.18112,-116.58216 -56.18112,-116.58216 z"
       id="path3016"
       inkscape:connector-curvature="0"
       sodipodi:nodetypes="ccczccczccccczzzzzzzzzzczzzzzzzzcccczzzzccczzzcczzczzczzczzzzzzccczzzzcczzzzzzcczzzzzzzczzzzzcc" />
    <path
       style="fill:none;stroke:#000000;stroke-width:6.31417322;stroke-linecap:butt;stroke-linejoin:miter;stroke-miterlimit:4;stroke-opacity:1;stroke-dasharray:none"
       d="m 237.81645,114.71584 c 0,0 45.11783,-50.573594 48.08153,-51.824411 2.9637,-1.250817 2.33364,-0.525037 4.03079,0 1.69715,0.525037 3.32017,1.780526 5.47036,3.742874 2.15019,1.962348 5.97585,6.063508 7.77366,8.637401 1.79781,2.573894 4.03078,6.909921 4.03078,6.909921"
       id="path3798"
       inkscape:connector-curvature="0"
       sodipodi:nodetypes="czzzzc" />
    <path
       style="fill:none;stroke:#000000;stroke-width:7.73149585999999990;stroke-linecap:round;stroke-linejoin:miter;stroke-miterlimit:4;stroke-opacity:1;stroke-dasharray:none"
       d="M 399.91169,565.30027 589.93451,441.49753"
       id="path3800"
       inkscape:connector-curvature="0"
       sodipodi:nodetypes="cc" />
    <path
       style="fill:#000000;fill-opacity:1;stroke:#000000;stroke-width:1px;stroke-linecap:butt;stroke-linejoin:miter;stroke-opacity:1"
       d="m 129.07321,490.01978 -13.64023,6.31115 -10.17927,-22.598 7.53266,-3.46095 -21.580065,-22.19082 0.814342,31.14859 6.921907,-2.8502 11.807956,27.48404 1.01793,2.44303 20.96931,-9.56853 z"
       id="path3802"
       inkscape:connector-curvature="0"
       sodipodi:nodetypes="ccccccccccc" />
    <path
       sodipodi:type="arc"
       style="fill:none;stroke:#656565;stroke-width:0.35433072;stroke-linecap:round;stroke-linejoin:miter;stroke-miterlimit:4;stroke-opacity:1;stroke-dasharray:none;stroke-dashoffset:0"
       id="path3806"
       sodipodi:cx="44.194702"
       sodipodi:cy="294.80566"
       sodipodi:rx="0.14395669"
       sodipodi:ry="0.71978343"
       d="m 44.338659,294.80566 a 0.14395669,0.71978343 0 1 1 -0.287914,-7e-5 l 0.143957,7e-5 z"
       sodipodi:start="0"
       sodipodi:end="3.1417011" />
    <path
       sodipodi:type="arc"
       style="fill:none;stroke:#000000;stroke-width:0.93666363;stroke-linecap:round;stroke-linejoin:miter;stroke-miterlimit:4;stroke-opacity:1;stroke-dasharray:none;stroke-dashoffset:0"
       id="path3812"
       sodipodi:cx="57.87059"
       sodipodi:cy="231.03284"
       sodipodi:rx="9.5011425"
       sodipodi:ry="9.5011406"
       d="m 67.371733,231.03284 a 9.5011425,9.5011406 0 1 1 -7.23e-4,-0.11715"
       sodipodi:start="0"
       sodipodi:end="6.270855"
       sodipodi:open="true"
       transform="matrix(1.5853711,0,0,1.5247652,-47.998922,-29.848581)" />
    <path
       sodipodi:type="arc"
       style="fill:none;stroke:#000000;stroke-width:0.93666363;stroke-linecap:round;stroke-linejoin:miter;stroke-miterlimit:4;stroke-opacity:1;stroke-dasharray:none;stroke-dashoffset:0"
       id="path3812-4"
       sodipodi:cx="57.87059"
       sodipodi:cy="231.03284"
       sodipodi:rx="9.5011425"
       sodipodi:ry="9.5011406"
       d="m 67.371733,231.03284 a 9.5011425,9.5011406 0 1 1 -7.23e-4,-0.11715"
       sodipodi:start="0"
       sodipodi:end="6.270855"
       sodipodi:open="true"
       transform="matrix(1.5853711,0,0,1.5247652,168.52734,-303.57838)" />
    <path
       sodipodi:type="arc"
       style="fill:none;stroke:#000000;stroke-width:0.93666363;stroke-linecap:round;stroke-linejoin:miter;stroke-miterlimit:4;stroke-opacity:1;stroke-dasharray:none;stroke-dashoffset:0"
       id="path3812-0"
       sodipodi:cx="57.87059"
       sodipodi:cy="231.03284"
       sodipodi:rx="9.5011425"
       sodipodi:ry="9.5011406"
       d="m 67.371733,231.03284 a 9.5011425,9.5011406 0 1 1 -7.23e-4,-0.11715"
       sodipodi:start="0"
       sodipodi:end="6.270855"
       sodipodi:open="true"
       transform="matrix(1.5853711,0,0,1.5247652,246.83978,-257.70893)" />
    <path
       sodipodi:type="arc"
       style="fill:none;stroke:#000000;stroke-width:0.93666363;stroke-linecap:round;stroke-linejoin:miter;stroke-miterlimit:4;stroke-opacity:1;stroke-dasharray:none;stroke-dashoffset:0"
       id="path3812-5"
       sodipodi:cx="57.87059"
       sodipodi:cy="231.03284"
       sodipodi:rx="9.5011425"
       sodipodi:ry="9.5011406"
       d="m 67.371733,231.03284 a 9.5011425,9.5011406 0 1 1 -7.23e-4,-0.11715"
       sodipodi:start="0"
       sodipodi:end="6.270855"
       sodipodi:open="true"
       transform="matrix(1.5853711,0,0,1.5247652,200.16701,-197.82295)" />
    <path
       sodipodi:type="arc"
       style="fill:none;stroke:#000000;stroke-width:0.93666363;stroke-linecap:round;stroke-linejoin:miter;stroke-miterlimit:4;stroke-opacity:1;stroke-dasharray:none;stroke-dashoffset:0"
       id="path3812-7"
       sodipodi:cx="57.87059"
       sodipodi:cy="231.03284"
       sodipodi:rx="9.5011425"
       sodipodi:ry="9.5011406"
       d="m 67.371733,231.03284 a 9.5011425,9.5011406 0 1 1 -7.23e-4,-0.11715"
       sodipodi:start="0"
       sodipodi:end="6.270855"
       sodipodi:open="true"
       transform="matrix(1.5853711,0,0,1.5247652,578.71268,-118.31381)" />
    <path
       sodipodi:type="arc"
       style="fill:none;stroke:#000000;stroke-width:0.93666363;stroke-linecap:round;stroke-linejoin:miter;stroke-miterlimit:4;stroke-opacity:1;stroke-dasharray:none;stroke-dashoffset:0"
       id="path3812-1"
       sodipodi:cx="57.87059"
       sodipodi:cy="231.03284"
       sodipodi:rx="9.5011425"
       sodipodi:ry="9.5011406"
       d="m 67.371733,231.03284 a 9.5011425,9.5011406 0 1 1 -7.23e-4,-0.11715"
       sodipodi:start="0"
       sodipodi:end="6.270855"
       sodipodi:open="true"
       transform="matrix(1.5853711,0,0,1.5247652,903.38432,-221.65932)" />
    <path
       sodipodi:type="arc"
       style="fill:none;stroke:#000000;stroke-width:0.93666363;stroke-linecap:round;stroke-linejoin:miter;stroke-miterlimit:4;stroke-opacity:1;stroke-dasharray:none;stroke-dashoffset:0"
       id="path3812-6"
       sodipodi:cx="57.87059"
       sodipodi:cy="231.03284"
       sodipodi:rx="9.5011425"
       sodipodi:ry="9.5011406"
       d="m 67.371733,231.03284 a 9.5011425,9.5011406 0 1 1 -7.23e-4,-0.11715"
       sodipodi:start="0"
       sodipodi:end="6.270855"
       sodipodi:open="true"
       transform="matrix(1.5853711,0,0,1.5247652,689.74291,-8.7835782)" />
    <path
       sodipodi:type="arc"
       style="fill:none;stroke:#000000;stroke-width:0.93666363;stroke-linecap:round;stroke-linejoin:miter;stroke-miterlimit:4;stroke-opacity:1;stroke-dasharray:none;stroke-dashoffset:0"
       id="path3812-9"
       sodipodi:cx="57.87059"
       sodipodi:cy="231.03284"
       sodipodi:rx="9.5011425"
       sodipodi:ry="9.5011406"
       d="m 67.371733,231.03284 a 9.5011425,9.5011406 0 1 1 -7.23e-4,-0.11715"
       sodipodi:start="0"
       sodipodi:end="6.270855"
       sodipodi:open="true"
       transform="matrix(1.5853711,0,0,1.5247652,466.6773,-37.675673)" />
    <path
       sodipodi:type="arc"
       style="fill:none;stroke:#000000;stroke-width:0.93666363;stroke-linecap:round;stroke-linejoin:miter;stroke-miterlimit:4;stroke-opacity:1;stroke-dasharray:none;stroke-dashoffset:0"
       id="path3812-2"
       sodipodi:cx="57.87059"
       sodipodi:cy="231.03284"
       sodipodi:rx="9.5011425"
       sodipodi:ry="9.5011406"
       d="m 67.371733,231.03284 a 9.5011425,9.5011406 0 1 1 -7.23e-4,-0.11715"
       sodipodi:start="0"
       sodipodi:end="6.270855"
       sodipodi:open="true"
       transform="matrix(1.5853711,0,0,1.5247652,475.06386,27.597833)" />
    <path
       sodipodi:type="arc"
       style="fill:none;stroke:#000000;stroke-width:0.93666363;stroke-linecap:round;stroke-linejoin:miter;stroke-miterlimit:4;stroke-opacity:1;stroke-dasharray:none;stroke-dashoffset:0"
       id="path3812-99"
       sodipodi:cx="57.87059"
       sodipodi:cy="231.03284"
       sodipodi:rx="9.5011425"
       sodipodi:ry="9.5011406"
       d="m 67.371733,231.03284 a 9.5011425,9.5011406 0 1 1 -7.23e-4,-0.11715"
       sodipodi:start="0"
       sodipodi:end="6.270855"
       sodipodi:open="true"
       transform="matrix(1.5853711,0,0,1.5247652,543.17961,58.844133)" />
    <path
       sodipodi:type="arc"
       style="fill:none;stroke:#000000;stroke-width:0.93666363;stroke-linecap:round;stroke-linejoin:miter;stroke-miterlimit:4;stroke-opacity:1;stroke-dasharray:none;stroke-dashoffset:0"
       id="path3812-44"
       sodipodi:cx="57.87059"
       sodipodi:cy="231.03284"
       sodipodi:rx="9.5011425"
       sodipodi:ry="9.5011406"
       d="m 67.371733,231.03284 a 9.5011425,9.5011406 0 1 1 -7.23e-4,-0.11715"
       sodipodi:start="0"
       sodipodi:end="6.270855"
       sodipodi:open="true"
       transform="matrix(1.5853711,0,0,1.5247652,324.30386,232.69878)" />
    <path
       sodipodi:type="arc"
       style="fill:none;stroke:#000000;stroke-width:0.93666363;stroke-linecap:round;stroke-linejoin:miter;stroke-miterlimit:4;stroke-opacity:1;stroke-dasharray:none;stroke-dashoffset:0"
       id="path3812-98"
       sodipodi:cx="57.87059"
       sodipodi:cy="231.03284"
       sodipodi:rx="9.5011425"
       sodipodi:ry="9.5011406"
       d="m 67.371733,231.03284 a 9.5011425,9.5011406 0 1 1 -7.23e-4,-0.11715"
       sodipodi:start="0"
       sodipodi:end="6.270855"
       sodipodi:open="true"
       transform="matrix(1.5853711,0,0,1.5247652,106.24797,61.844134)" />
    <path
       sodipodi:type="arc"
       style="fill:none;stroke:#000000;stroke-width:0.93666363;stroke-linecap:round;stroke-linejoin:miter;stroke-miterlimit:4;stroke-opacity:1;stroke-dasharray:none;stroke-dashoffset:0"
       id="path3812-58"
       sodipodi:cx="57.87059"
       sodipodi:cy="231.03284"
       sodipodi:rx="9.5011425"
       sodipodi:ry="9.5011406"
       d="m 67.371733,231.03284 a 9.5011425,9.5011406 0 1 1 -7.23e-4,-0.11715"
       sodipodi:start="0"
       sodipodi:end="6.270855"
       sodipodi:open="true"
       transform="matrix(1.5853711,0,0,1.5247652,146.29757,149.82476)" />
    <path
       sodipodi:type="arc"
       style="fill:none;stroke:#000000;stroke-width:0.93666363;stroke-linecap:round;stroke-linejoin:miter;stroke-miterlimit:4;stroke-opacity:1;stroke-dasharray:none;stroke-dashoffset:0"
       id="path3812-72"
       sodipodi:cx="57.87059"
       sodipodi:cy="231.03284"
       sodipodi:rx="9.5011425"
       sodipodi:ry="9.5011406"
       d="m 67.371733,231.03284 a 9.5011425,9.5011406 0 1 1 -7.23e-4,-0.11715"
       sodipodi:start="0"
       sodipodi:end="6.270855"
       sodipodi:open="true"
       transform="matrix(1.5853711,0,0,1.5247652,155.20749,212.31735)" />
    <path
       sodipodi:type="arc"
       style="fill:none;stroke:#000000;stroke-width:0.93666363;stroke-linecap:round;stroke-linejoin:miter;stroke-miterlimit:4;stroke-opacity:1;stroke-dasharray:none;stroke-dashoffset:0"
       id="path3812-67"
       sodipodi:cx="57.87059"
       sodipodi:cy="231.03284"
       sodipodi:rx="9.5011425"
       sodipodi:ry="9.5011406"
       d="m 67.371733,231.03284 a 9.5011425,9.5011406 0 1 1 -7.23e-4,-0.11715"
       sodipodi:start="0"
       sodipodi:end="6.270855"
       sodipodi:open="true"
       transform="matrix(1.5853711,0,0,1.5247652,236.23316,270.855)" />
    <path
       sodipodi:type="arc"
       style="fill:none;stroke:#000000;stroke-width:0.93666363;stroke-linecap:round;stroke-linejoin:miter;stroke-miterlimit:4;stroke-opacity:1;stroke-dasharray:none;stroke-dashoffset:0"
       id="path3812-3"
       sodipodi:cx="57.87059"
       sodipodi:cy="231.03284"
       sodipodi:rx="9.5011425"
       sodipodi:ry="9.5011406"
       d="m 67.371733,231.03284 a 9.5011425,9.5011406 0 1 1 -7.23e-4,-0.11715"
       sodipodi:start="0"
       sodipodi:end="6.270855"
       sodipodi:open="true"
       transform="matrix(1.5853711,0,0,1.5247652,148.10088,322.6794)" />
    <text
       xml:space="preserve"
       style="font-size:20px;font-style:normal;font-weight:normal;line-height:125%;letter-spacing:0px;word-spacing:0px;fill:#000000;fill-opacity:1;stroke:none;font-family:Times New Roman;-inkscape-font-specification:Times New Roman"
       x="25.048464"
       y="239.09442"
       id="text4057"
       sodipodi:linespacing="125%"><tspan
         sodipodi:role="line"
         id="tspan4059"
         x="25.048464"
         y="239.09442" /></text>
    <text
       xml:space="preserve"
       style="font-size:28px;font-style:normal;font-weight:normal;line-height:125%;letter-spacing:0px;word-spacing:0px;fill:#000000;fill-opacity:1;stroke:none;font-family:Times New Roman;-inkscape-font-specification:Times New Roman"
       x="38"
       y="330.59448"
       id="text4065"
       sodipodi:linespacing="125%"><tspan
         sodipodi:role="line"
         id="tspan4067"
         x="38"
         y="330.59448">1</tspan></text>
    <text
       xml:space="preserve"
       style="font-size:22px;font-style:normal;font-weight:normal;line-height:125%;letter-spacing:0px;word-spacing:0px;fill:#000000;fill-opacity:1;stroke:none;font-family:Times New Roman;-inkscape-font-specification:Times New Roman"
       x="121"
       y="56.594482"
       id="text4069"
       sodipodi:linespacing="125%"><tspan
         sodipodi:role="line"
         id="tspan4071"
         x="121"
         y="56.594482" /></text>
    <text
       xml:space="preserve"
       style="font-size:22px;font-style:normal;font-weight:normal;line-height:125%;letter-spacing:0px;word-spacing:0px;fill:#000000;fill-opacity:1;stroke:none;font-family:Times New Roman;-inkscape-font-specification:Times New Roman"
       x="129.5"
       y="104.09448"
       id="text4073"
       sodipodi:linespacing="125%"><tspan
         sodipodi:role="line"
         id="tspan4075"
         x="129.5"
         y="104.09448" /></text>
    <text
       xml:space="preserve"
       style="font-size:28px;font-style:normal;font-weight:normal;line-height:125%;letter-spacing:0px;word-spacing:0px;fill:#000000;fill-opacity:1;stroke:none;font-family:Times New Roman;-inkscape-font-specification:Times New Roman"
       x="255"
       y="57.594482"
       id="text4077"
       sodipodi:linespacing="125%"><tspan
         sodipodi:role="line"
         id="tspan4079"
         x="255"
         y="57.594482">2</tspan></text>
    <text
       xml:space="preserve"
       style="font-size:28px;font-style:normal;font-weight:normal;line-height:125%;letter-spacing:0px;word-spacing:0px;fill:#000000;fill-opacity:1;stroke:none;font-family:Times New Roman;-inkscape-font-specification:Times New Roman"
       x="331.5"
       y="103.09448"
       id="text4081"
       sodipodi:linespacing="125%"><tspan
         sodipodi:role="line"
         id="tspan4083"
         x="331.5"
         y="103.09448">3</tspan></text>
    <text
       xml:space="preserve"
       style="font-size:28px;font-style:normal;font-weight:normal;line-height:125%;letter-spacing:0px;word-spacing:0px;fill:#000000;fill-opacity:1;stroke:none;font-family:Times New Roman;-inkscape-font-specification:Times New Roman"
       x="284"
       y="163.09448"
       id="text4085"
       sodipodi:linespacing="125%"><tspan
         sodipodi:role="line"
         id="tspan4087"
         x="284"
         y="163.09448">4</tspan></text>
    <text
       xml:space="preserve"
       style="font-size:28px;font-style:normal;font-weight:normal;line-height:125%;letter-spacing:0px;word-spacing:0px;fill:#000000;fill-opacity:1;stroke:none;font-family:Times New Roman;-inkscape-font-specification:Times New Roman"
       x="664"
       y="242.09448"
       id="text4089"
       sodipodi:linespacing="125%"><tspan
         sodipodi:role="line"
         id="tspan4091"
         x="664"
         y="242.09448">5</tspan></text>
    <text
       xml:space="preserve"
       style="font-size:28px;font-style:normal;font-weight:normal;line-height:125%;letter-spacing:0px;word-spacing:0px;fill:#000000;fill-opacity:1;stroke:none;font-family:Times New Roman;-inkscape-font-specification:Times New Roman"
       x="987.5"
       y="139.09448"
       id="text4093"
       sodipodi:linespacing="125%"><tspan
         sodipodi:role="line"
         id="tspan4095"
         x="987.5"
         y="139.09448">6</tspan></text>
    <text
       xml:space="preserve"
       style="font-size:28px;font-style:normal;font-weight:normal;line-height:125%;letter-spacing:0px;word-spacing:0px;fill:#000000;fill-opacity:1;stroke:none;font-family:Times New Roman;-inkscape-font-specification:Times New Roman"
       x="775.5"
       y="353.59448"
       id="text4097"
       sodipodi:linespacing="125%"><tspan
         sodipodi:role="line"
         id="tspan4099"
         x="775.5"
         y="353.59448">7</tspan></text>
    <text
       xml:space="preserve"
       style="font-size:28px;font-style:normal;font-weight:normal;line-height:125%;letter-spacing:0px;word-spacing:0px;fill:#000000;fill-opacity:1;stroke:none;font-family:Times New Roman;-inkscape-font-specification:Times New Roman"
       x="551.06317"
       y="323.54855"
       id="text4101"
       sodipodi:linespacing="125%"><tspan
         sodipodi:role="line"
         id="tspan4103"
         x="551.06317"
         y="323.54855">8</tspan></text>
    <text
       xml:space="preserve"
       style="font-size:28px;font-style:normal;font-weight:normal;line-height:125%;letter-spacing:0px;word-spacing:0px;fill:#000000;fill-opacity:1;stroke:none;font-family:Times New Roman;-inkscape-font-specification:Times New Roman"
       x="560.5"
       y="389.59448"
       id="text4105"
       sodipodi:linespacing="125%"><tspan
         sodipodi:role="line"
         id="tspan4107"
         x="560.5"
         y="389.59448">9</tspan></text>
    <text
       xml:space="preserve"
       style="font-size:24px;font-style:normal;font-weight:normal;line-height:125%;letter-spacing:0px;word-spacing:0px;fill:#000000;fill-opacity:1;stroke:none;font-family:Times New Roman;-inkscape-font-specification:Times New Roman"
       x="623.5"
       y="419.59448"
       id="text4113"
       sodipodi:linespacing="125%"><tspan
         sodipodi:role="line"
         id="tspan4115"
         x="623.5"
         y="419.59448">10</tspan></text>
    <text
       xml:space="preserve"
       style="font-size:24px;font-style:normal;font-weight:normal;line-height:125%;letter-spacing:0px;word-spacing:0px;fill:#000000;fill-opacity:1;stroke:none;font-family:Times New Roman;-inkscape-font-specification:Times New Roman"
       x="405"
       y="592.59448"
       id="text4117"
       sodipodi:linespacing="125%"><tspan
         sodipodi:role="line"
         id="tspan4119"
         x="405"
         y="592.59448">11</tspan></text>
    <text
       xml:space="preserve"
       style="font-size:24px;font-style:normal;font-weight:normal;line-height:125%;letter-spacing:0px;word-spacing:0px;fill:#000000;fill-opacity:1;stroke:none;font-family:Times New Roman;-inkscape-font-specification:Times New Roman"
       x="186"
       y="421.59448"
       id="text4121"
       sodipodi:linespacing="125%"><tspan
         sodipodi:role="line"
         id="tspan4123"
         x="186"
         y="421.59448">12</tspan></text>
    <text
       xml:space="preserve"
       style="font-size:24px;font-style:normal;font-weight:normal;line-height:125%;letter-spacing:0px;word-spacing:0px;fill:#000000;fill-opacity:1;stroke:none;font-family:Times New Roman;-inkscape-font-specification:Times New Roman"
       x="226.5"
       y="510.09448"
       id="text4125"
       sodipodi:linespacing="125%"><tspan
         sodipodi:role="line"
         id="tspan4127"
         x="226.5"
         y="510.09448">13</tspan></text>
    <text
       xml:space="preserve"
       style="font-size:24px;font-style:normal;font-weight:normal;line-height:125%;letter-spacing:0px;word-spacing:0px;fill:#000000;fill-opacity:1;stroke:none;font-family:Times New Roman;-inkscape-font-specification:Times New Roman"
       x="234.5"
       y="572.59448"
       id="text4129"
       sodipodi:linespacing="125%"><tspan
         sodipodi:role="line"
         id="tspan4131"
         x="234.5"
         y="572.59448">14</tspan></text>
    <text
       xml:space="preserve"
       style="font-size:24px;font-style:normal;font-weight:normal;line-height:125%;letter-spacing:0px;word-spacing:0px;fill:#000000;fill-opacity:1;stroke:none;font-family:Times New Roman;-inkscape-font-specification:Times New Roman"
       x="315.5"
       y="631.09448"
       id="text4133"
       sodipodi:linespacing="125%"><tspan
         sodipodi:role="line"
         id="tspan4135"
         x="315.5"
         y="631.09448">15</tspan></text>
    <text
       xml:space="preserve"
       style="font-size:24px;font-style:normal;font-weight:normal;line-height:125%;letter-spacing:0px;word-spacing:0px;fill:#000000;fill-opacity:1;stroke:none;font-family:Times New Roman;-inkscape-font-specification:Times New Roman"
       x="227.5"
       y="682.59448"
       id="text4137"
       sodipodi:linespacing="125%"><tspan
         sodipodi:role="line"
         id="tspan4139"
         x="227.5"
         y="682.59448">16</tspan></text>
    <path
       style="fill:#ff0000;fill-opacity:1;stroke:#ff0000;stroke-width:1px;stroke-linecap:butt;stroke-linejoin:miter;stroke-opacity:1"
       d="m 365.18617,138.21846 -7.77818,15.55634 35.7089,8.13173 z"
       id="path4141"
       inkscape:connector-curvature="0"
       sodipodi:nodetypes="cccc" />
    <path
       style="fill:#ff0000;fill-opacity:1;stroke:#ff0000;stroke-width:1px;stroke-linecap:butt;stroke-linejoin:miter;stroke-opacity:1"
       d="m 604.92985,448.52385 9.54594,14.14214 -32.52691,11.3137 z"
       id="path4151"
       inkscape:connector-curvature="0"
       sodipodi:nodetypes="cccc" />
    <text
       xml:space="preserve"
       style="font-size:24px;font-style:normal;font-weight:normal;line-height:125%;letter-spacing:0px;word-spacing:0px;fill:#000000;fill-opacity:1;stroke:none;font-family:Times New Roman;-inkscape-font-specification:Times New Roman"
       x="89.5"
       y="329.59448"
       id="text4153"
       sodipodi:linespacing="125%"><tspan
         sodipodi:role="line"
         id="tspan4155"
         x="89.5"
         y="329.59448">NordKurve</tspan></text>
    <text
       xml:space="preserve"
       style="font-size:24px;font-style:normal;font-weight:normal;line-height:125%;letter-spacing:0px;word-spacing:0px;fill:#000000;fill-opacity:1;stroke:none;font-family:Times New Roman;-inkscape-font-specification:Times New Roman"
       x="217"
       y="418.59448"
       id="text4157"
       sodipodi:linespacing="125%"><tspan
         sodipodi:role="line"
         id="tspan4159"
         x="217"
         y="418.59448">Sachs</tspan></text>
    <text
       xml:space="preserve"
       style="font-size:24px;font-style:normal;font-weight:normal;line-height:125%;letter-spacing:0px;word-spacing:0px;fill:#000000;fill-opacity:1;stroke:none;font-family:Times New Roman;-inkscape-font-specification:Times New Roman"
       x="259.5"
       y="686.59448"
       id="text4161"
       sodipodi:linespacing="125%"><tspan
         sodipodi:role="line"
         id="tspan4163"
         x="259.5"
         y="686.59448">SudKurve</tspan></text>
    <text
       xml:space="preserve"
       style="font-size:24px;font-style:normal;font-weight:normal;line-height:125%;letter-spacing:0px;word-spacing:0px;fill:#000000;fill-opacity:1;stroke:none;font-family:Times New Roman;-inkscape-font-specification:Times New Roman"
       x="437"
       y="593.09448"
       id="text4165"
       sodipodi:linespacing="125%"><tspan
         sodipodi:role="line"
         id="tspan4167"
         x="437"
         y="593.09448">Mobil 1</tspan></text>
    <text
       xml:space="preserve"
       style="font-size:24px;font-style:normal;font-weight:normal;line-height:125%;letter-spacing:0px;word-spacing:0px;fill:#000000;fill-opacity:1;stroke:none;font-family:Times New Roman;-inkscape-font-specification:Times New Roman"
       x="897.5"
       y="137.59448"
       id="text4169"
       sodipodi:linespacing="125%"><tspan
         sodipodi:role="line"
         id="tspan4171"
         x="897.5"
         y="137.59448">Hairpin</tspan></text>
    <text
       xml:space="preserve"
       style="font-size:24px;font-style:normal;font-weight:normal;line-height:125%;letter-spacing:0px;word-spacing:0px;fill:#000000;fill-opacity:1;stroke:none;font-family:Times New Roman;-inkscape-font-specification:Times New Roman"
       x="616"
       y="211.09448"
       id="text4173"
       sodipodi:linespacing="125%"><tspan
         sodipodi:role="line"
         id="tspan4175"
         x="616"
         y="211.09448">Parabolika</tspan></text>
    <text
       xml:space="preserve"
       style="font-size:24px;font-style:normal;font-weight:normal;line-height:125%;letter-spacing:0px;word-spacing:0px;fill:#000000;fill-opacity:1;stroke:none;font-family:Times New Roman;-inkscape-font-specification:Times New Roman"
       x="485.26776"
       y="293.78076"
       id="text4177"
       sodipodi:linespacing="125%"><tspan
         sodipodi:role="line"
         id="tspan4179"
         x="485.26776"
         y="293.78076">Mercedes</tspan></text>
  </g>
</svg>
